<svg width="138" height="43" viewBox="0 0 138 43" fill="none" xmlns="http://www.w3.org/2000/svg">
<g filter="url(#filter0_d_1_2)">
<path d="M10.7031 0.875V35H4.25781V0.875H10.7031ZM31.1875 0.875L17.5 17.5156L9.67188 25.8828L8.52344 19.625L13.9609 12.5703L23.2891 0.875H31.1875ZM24.0156 35L13.3984 19.0156L18.0156 14.8438L31.6797 35H24.0156ZM59.2403 14.9609V20.0234H41.2872V14.9609H59.2403ZM43.045 0.875V35H36.5997V0.875H43.045ZM64.0216 0.875V35H57.5762V0.875H64.0216Z" fill="#020202"/>
<path d="M86.0744 6.05469L76.3478 35H69.5275L82.2775 0.875H86.6369L86.0744 6.05469ZM94.2072 35L84.4337 6.05469L83.8478 0.875H88.2306L101.051 35H94.2072ZM93.7619 22.3203V27.4062H75.4572V22.3203H93.7619ZM133.908 0.875V35H127.44L112.932 11.3281V35H106.487V0.875H112.932L127.487 24.5703V0.875H133.908Z" fill="#F9CA23"/>
</g>
<defs>
<filter id="filter0_d_1_2" x="0.257812" y="0.875" width="137.651" height="42.125" filterUnits="userSpaceOnUse" color-interpolation-filters="sRGB">
<feFlood flood-opacity="0" result="BackgroundImageFix"/>
<feColorMatrix in="SourceAlpha" type="matrix" values="0 0 0 0 0 0 0 0 0 0 0 0 0 0 0 0 0 0 127 0" result="hardAlpha"/>
<feOffset dy="4"/>
<feGaussianBlur stdDeviation="2"/>
<feComposite in2="hardAlpha" operator="out"/>
<feColorMatrix type="matrix" values="0 0 0 0 0 0 0 0 0 0 0 0 0 0 0 0 0 0 0.25 0"/>
<feBlend mode="normal" in2="BackgroundImageFix" result="effect1_dropShadow_1_2"/>
<feBlend mode="normal" in="SourceGraphic" in2="effect1_dropShadow_1_2" result="shape"/>
</filter>
</defs>
</svg>
