<svg width="130" height="35" viewBox="0 0 130 35" fill="none" xmlns="http://www.w3.org/2000/svg">
<g filter="url(#filter0_i_1_3)">
<path d="M6.7031 0.875V35H0.257812V0.875H6.7031ZM27.1875 0.875L13.5 17.5156L5.67188 25.8828L4.52344 19.625L9.9609 12.5703L19.2891 0.875H27.1875ZM20.0156 35L9.3984 19.0156L14.0156 14.8438L27.6797 35H20.0156ZM55.2403 14.9609V20.0234H37.2872V14.9609H55.2403ZM39.045 0.875V35H32.5997V0.875H39.045ZM60.0216 0.875V35H53.5762V0.875H60.0216Z" fill="#020202"/>
<path d="M82.0744 6.05469L72.3478 35H65.5275L78.2775 0.875H82.6369L82.0744 6.05469ZM90.2072 35L80.4337 6.05469L79.8478 0.875H84.2306L97.051 35H90.2072ZM89.7619 22.3203V27.4062H71.4572V22.3203H89.7619ZM129.908 0.875V35H123.44L108.932 11.3281V35H102.487V0.875H108.932L123.487 24.5703V0.875H129.908Z" fill="#22EEDB"/>
</g>
<defs>
<filter id="filter0_i_1_3" x="0.257812" y="0.875" width="129.65" height="38.125" filterUnits="userSpaceOnUse" color-interpolation-filters="sRGB">
<feFlood flood-opacity="0" result="BackgroundImageFix"/>
<feBlend mode="normal" in="SourceGraphic" in2="BackgroundImageFix" result="shape"/>
<feColorMatrix in="SourceAlpha" type="matrix" values="0 0 0 0 0 0 0 0 0 0 0 0 0 0 0 0 0 0 127 0" result="hardAlpha"/>
<feOffset dy="4"/>
<feGaussianBlur stdDeviation="2"/>
<feComposite in2="hardAlpha" operator="arithmetic" k2="-1" k3="1"/>
<feColorMatrix type="matrix" values="0 0 0 0 0 0 0 0 0 0 0 0 0 0 0 0 0 0 0.25 0"/>
<feBlend mode="normal" in2="shape" result="effect1_innerShadow_1_3"/>
</filter>
</defs>
</svg>
